# xmcd
#
# Track frame offsets: 
#        150
#        23452
#        47966
#        78839
#        105716
#        147863
#        166445
#        181728
#        212047
#        234499
#
# Disc length: 3358 seconds
#
# Revision: 1
# Processed by: cddbd v1.5.2PL0 Copyright (c) Steve Scherf et al.
# Submitted via: ExactAudioCopy v0.95b4
#
DISCID=790d1c0a
DTITLE=Grazyna Auguscik - River
DYEAR=2001
DGENRE=Jazz
TTITLE0=The Moon is a Harsh Mistress
TTITLE1=Never Again
TTITLE2=Bachianas Brasileiras No 5 I Aria (Cantilena)
TTITLE3=Cego Aderaldo
TTITLE4=River
TTITLE5=Dancing All Around
TTITLE6=If I Ever Dream Again
TTITLE7=Aqua Vinho
TTITLE8=Sing a Song of Song
TTITLE9=Elegia
EXTD=YEAR: 2001
EXTT0=
EXTT1=
EXTT2=
EXTT3=
EXTT4=
EXTT5=
EXTT6=
EXTT7=
EXTT8=
EXTT9=
PLAYORDER=
